<svg width="28" height="28" viewBox="0 0 28 28" fill="none" xmlns="http://www.w3.org/2000/svg">
<mask id="path-1-inside-1_397_989" fill="white">
<path d="M4.49245 4.86112H18.7538C21.2338 4.86402 23.2434 6.91907 23.2463 9.45477V19.1774C23.2434 21.7134 21.2338 23.7684 18.7541 23.7713H17.3102V28L9.02222 23.7713H4.49245C2.01244 23.7684 0.00283442 21.7133 0 19.1776V9.45501C0.00283442 6.91904 2.01276 4.86399 4.49245 4.86112ZM18.7538 21.8625C20.2034 21.861 21.3782 20.6597 21.3796 19.1775V9.4551C21.3782 7.97271 20.2034 6.77144 18.754 6.76994H4.49247C3.04286 6.77141 1.86812 7.97271 1.86668 9.4549V19.1774C1.86807 20.6597 3.04283 21.861 4.49226 21.8625H9.47022L15.4436 24.9166V21.8624L18.7538 21.8625ZM23.5636 18.9102H22.3129V17.0013H23.5499C24.9699 16.969 26.1116 15.7953 26.1333 14.3438V4.59392C26.1333 3.11098 24.9578 1.90881 23.5076 1.90881H9.24622C7.79604 1.90881 6.62043 3.11098 6.62043 4.59392V5.8665H4.75372V4.59392C4.75372 2.05677 6.76509 0 9.2462 0H23.5076C25.9887 0 28 2.0568 28 4.59392V14.348C27.9828 16.8493 26.0132 18.8745 23.5731 18.91L23.5698 18.9101L23.5636 18.9102Z"/>
<path d="M18.7538 21.8625C20.2034 21.861 21.3782 20.6597 21.3796 19.1775V9.4551C21.3782 7.97271 20.2034 6.77144 18.754 6.76994H4.49247C3.04286 6.77141 1.86812 7.97271 1.86668 9.4549V19.1774C1.86807 20.6597 3.04283 21.861 4.49226 21.8625H9.47022L15.4436 24.9166V21.8624L18.7538 21.8625Z"/>
</mask>
<path d="M4.49245 4.86112H18.7538C21.2338 4.86402 23.2434 6.91907 23.2463 9.45477V19.1774C23.2434 21.7134 21.2338 23.7684 18.7541 23.7713H17.3102V28L9.02222 23.7713H4.49245C2.01244 23.7684 0.00283442 21.7133 0 19.1776V9.45501C0.00283442 6.91904 2.01276 4.86399 4.49245 4.86112ZM18.7538 21.8625C20.2034 21.861 21.3782 20.6597 21.3796 19.1775V9.4551C21.3782 7.97271 20.2034 6.77144 18.754 6.76994H4.49247C3.04286 6.77141 1.86812 7.97271 1.86668 9.4549V19.1774C1.86807 20.6597 3.04283 21.861 4.49226 21.8625H9.47022L15.4436 24.9166V21.8624L18.7538 21.8625ZM23.5636 18.9102H22.3129V17.0013H23.5499C24.9699 16.969 26.1116 15.7953 26.1333 14.3438V4.59392C26.1333 3.11098 24.9578 1.90881 23.5076 1.90881H9.24622C7.79604 1.90881 6.62043 3.11098 6.62043 4.59392V5.8665H4.75372V4.59392C4.75372 2.05677 6.76509 0 9.2462 0H23.5076C25.9887 0 28 2.0568 28 4.59392V14.348C27.9828 16.8493 26.0132 18.8745 23.5731 18.91L23.5698 18.9101L23.5636 18.9102Z" fill="#121212"/>
<path d="M18.7538 21.8625C20.2034 21.861 21.3782 20.6597 21.3796 19.1775V9.4551C21.3782 7.97271 20.2034 6.77144 18.754 6.76994H4.49247C3.04286 6.77141 1.86812 7.97271 1.86668 9.4549V19.1774C1.86807 20.6597 3.04283 21.861 4.49226 21.8625H9.47022L15.4436 24.9166V21.8624L18.7538 21.8625Z" fill="#121212"/>
<path d="M4.49245 4.86112H18.7538C21.2338 4.86402 23.2434 6.91907 23.2463 9.45477V19.1774C23.2434 21.7134 21.2338 23.7684 18.7541 23.7713H17.3102V28L9.02222 23.7713H4.49245C2.01244 23.7684 0.00283442 21.7133 0 19.1776V9.45501C0.00283442 6.91904 2.01276 4.86399 4.49245 4.86112ZM18.7538 21.8625C20.2034 21.861 21.3782 20.6597 21.3796 19.1775V9.4551C21.3782 7.97271 20.2034 6.77144 18.754 6.76994H4.49247C3.04286 6.77141 1.86812 7.97271 1.86668 9.4549V19.1774C1.86807 20.6597 3.04283 21.861 4.49226 21.8625H9.47022L15.4436 24.9166V21.8624L18.7538 21.8625ZM23.5636 18.9102H22.3129V17.0013H23.5499C24.9699 16.969 26.1116 15.7953 26.1333 14.3438V4.59392C26.1333 3.11098 24.9578 1.90881 23.5076 1.90881H9.24622C7.79604 1.90881 6.62043 3.11098 6.62043 4.59392V5.8665H4.75372V4.59392C4.75372 2.05677 6.76509 0 9.2462 0H23.5076C25.9887 0 28 2.0568 28 4.59392V14.348C27.9828 16.8493 26.0132 18.8745 23.5731 18.91L23.5698 18.9101L23.5636 18.9102Z" stroke="#121212" stroke-width="0.149594" mask="url(#path-1-inside-1_397_989)"/>
<path d="M18.7538 21.8625C20.2034 21.861 21.3782 20.6597 21.3796 19.1775V9.4551C21.3782 7.97271 20.2034 6.77144 18.754 6.76994H4.49247C3.04286 6.77141 1.86812 7.97271 1.86668 9.4549V19.1774C1.86807 20.6597 3.04283 21.861 4.49226 21.8625H9.47022L15.4436 24.9166V21.8624L18.7538 21.8625Z" stroke="#121212" stroke-width="0.149594" mask="url(#path-1-inside-1_397_989)"/>
</svg>
