<svg width="30" height="30" viewBox="0 0 30 30" fill="none" xmlns="http://www.w3.org/2000/svg">
<path d="M4 12.0376V27.9229C4 28.2085 4.10536 28.4824 4.29289 28.6844C4.48043 28.8864 4.73478 28.9998 5 28.9998H11V19.8456C11 19.4172 11.158 19.0063 11.4393 18.7033C11.7206 18.4004 12.1022 18.2302 12.5 18.2302H17.5C17.8978 18.2302 18.2794 18.4004 18.5607 18.7033C18.842 19.0063 19 19.4172 19 19.8456V28.9998H25C25.2652 28.9998 25.5196 28.8864 25.7071 28.6844C25.8946 28.4824 26 28.2085 26 27.9229V12.0376" stroke="#121212" stroke-width="2" stroke-linecap="round" stroke-linejoin="round"/>
<path d="M29 14.9994L15.6806 1.26807C15.3681 0.912667 14.6375 0.908628 14.3194 1.26807L1 14.9994" stroke="#121212" stroke-width="2" stroke-linecap="round" stroke-linejoin="round"/>
<path d="M24 9.81591V2.0752H21V6.71962" stroke="#121212" stroke-width="2" stroke-linecap="round" stroke-linejoin="round"/>
</svg>
