<svg width="28" height="28" viewBox="0 0 28 28" fill="none" xmlns="http://www.w3.org/2000/svg">
<path d="M14.0082 14.0145C17.8226 14.0145 21 10.8395 21 6.93888C21 3.06854 17.8547 0 14.0082 0C10.2095 0 7 3.09886 7 6.93888C7.01573 10.8241 10.2095 14.0145 14.0082 14.0145ZM14 12C11.6599 12 9 9.67699 9 7C9 4.3701 11.6278 2 14 2C16.4037 2 19 4.30834 19 6.93888C19 9.61458 16.3715 12 14 12ZM3.94295 28H24.0735C26.7336 28 28 27.2434 28 25.581C28 21.6191 22.7106 15.8897 14.0082 15.8897C5.30513 15.8897 0 21.6197 0 25.5804C0 27.2434 1.26645 28 3.94295 28ZM3 26C2.58287 26 2.58077 25.6101 2.58077 25.2927C2.58077 22.8131 6.65228 18 14.0082 18C21.3655 18 25.4192 22.8131 25.4192 25.2927C25.4192 25.6101 25.4165 26 25 26L14.0082 26L3 26Z" fill="black"/>
<path d="M3 26C2.58287 26 2.58077 25.6101 2.58077 25.2927C2.58077 22.8131 6.65228 18 14.0082 18C21.3655 18 25.4192 22.8131 25.4192 25.2927C25.4192 25.6101 25.4165 26 25 26L14.0082 26L3 26Z" fill="black"/>
<path d="M14 12C11.6599 12 9 9.67699 9 7C9 4.3701 11.6278 2 14 2C16.4037 2 19 4.30834 19 6.93888C19 9.61458 16.3715 12 14 12Z" fill="black"/>
</svg>
