<svg width="26" height="26" viewBox="0 0 26 26" fill="none" xmlns="http://www.w3.org/2000/svg">
<path d="M9.44987 13H16.1165M12.7832 9.66667V16.3333M12.7832 25C15.1566 25 17.4767 24.2962 19.45 22.9776C21.4234 21.6591 22.9615 19.7849 23.8698 17.5922C24.778 15.3995 25.0156 12.9867 24.5526 10.6589C24.0896 8.33115 22.9467 6.19295 21.2685 4.51472C19.5902 2.83649 17.4521 1.6936 15.1243 1.23058C12.7965 0.767559 10.3837 1.0052 8.191 1.91345C5.99829 2.8217 4.12414 4.35977 2.80557 6.33316C1.48699 8.30655 0.783203 10.6266 0.783203 13C0.783203 14.92 1.23387 16.7333 2.03654 18.3427C2.64054 19.5573 1.80054 21.196 1.48054 22.392C1.40964 22.6565 1.40963 22.935 1.4805 23.1996C1.55137 23.4641 1.69063 23.7053 1.88427 23.8989C2.07791 24.0926 2.31912 24.2318 2.58364 24.3027C2.84817 24.3736 3.12668 24.3736 3.3912 24.3027C4.5872 23.9827 6.22587 23.1427 7.44053 23.748C9.10082 24.5724 10.9295 25.0009 12.7832 25Z" stroke="#121212" stroke-width="1.5" stroke-linecap="round" stroke-linejoin="round"/>
</svg>
