<svg width="22" height="22" viewBox="0 0 22 22" fill="none" xmlns="http://www.w3.org/2000/svg">
<rect width="22" height="22" rx="11" fill="black"/>
<path d="M8.86 13.2279L9.7405 12.9739L15.042 7.60892C15.0838 7.56607 15.1071 7.50849 15.1068 7.44862C15.1065 7.38874 15.0827 7.33138 15.0405 7.28892L14.723 6.96792C14.7025 6.94684 14.678 6.93006 14.6509 6.91855C14.6238 6.90705 14.5947 6.90105 14.5653 6.90091C14.5359 6.90077 14.5067 6.90649 14.4796 6.91774C14.4524 6.92899 14.4277 6.94554 14.407 6.96642L9.1195 12.3174L8.86 13.2279ZM15.3515 6.33192L15.669 6.65342C16.107 7.09692 16.111 7.81242 15.677 8.25142L10.214 13.7804L8.332 14.3224C8.2751 14.3384 8.21562 14.343 8.15693 14.336C8.09825 14.329 8.04152 14.3106 7.98998 14.2816C7.93844 14.2527 7.89311 14.2139 7.85656 14.1675C7.82002 14.121 7.79298 14.0678 7.777 14.0109C7.75248 13.9284 7.75213 13.8406 7.776 13.7579L8.3235 11.8379L13.772 6.32342C13.8756 6.2191 13.9989 6.13645 14.1348 6.0803C14.2707 6.02414 14.4164 5.99561 14.5634 5.99635C14.7105 5.9971 14.8559 6.02711 14.9912 6.08464C15.1265 6.14216 15.249 6.22656 15.3515 6.33192ZM9.592 6.90842C9.84 6.90842 10.041 7.11192 10.041 7.36292C10.0414 7.42226 10.0301 7.48109 10.0077 7.53605C9.98538 7.59101 9.95241 7.64103 9.91071 7.68324C9.86901 7.72545 9.81939 7.75903 9.76471 7.78205C9.71002 7.80508 9.65133 7.8171 9.592 7.81742H7.796C7.3 7.81742 6.898 8.22442 6.898 8.72592V14.1789C6.898 14.6809 7.3 15.0879 7.796 15.0879H13.184C13.68 15.0879 14.0825 14.6809 14.0825 14.1789V12.3614C14.0825 12.1104 14.2835 11.9069 14.5315 11.9069C14.7795 11.9069 14.9805 12.1104 14.9805 12.3619V14.1789C14.9805 15.1829 14.176 15.9969 13.184 15.9969H7.796C6.804 15.9969 6 15.1829 6 14.1789V8.72592C6 7.72242 6.804 6.90842 7.796 6.90842H9.592Z" fill="white"/>
</svg>
